<?xml version="1.0" encoding="UTF-8"?>
<svg width="235px" height="27px" viewBox="0 0 235 27" version="1.1" xmlns="http://www.w3.org/2000/svg" xmlns:xlink="http://www.w3.org/1999/xlink">
    <!-- Generator: Sketch 55.2 (78181) - https://sketchapp.com -->
    <title>logo-chatpro</title>
    <desc>Created with Sketch.</desc>
    <g id="Page-1" stroke="none" stroke-width="1" fill="none" fill-rule="evenodd">
        <g id="logo-chatpro">
            <rect id="Rectangle" stroke="#000000" stroke-width="2" x="120.585366" y="1" width="113" height="25"></rect>
            <g id="logo-chatpro-02" transform="translate(0.000000, 3.000000)" fill="#000000">
                <path d="M9.31834729,9.23167431 C8.8086023,9.22814724 8.30208748,9.31280757 7.82119667,9.48191234 C7.36575493,9.6398326 6.94832938,9.89116212 6.59567195,10.2197937 C6.23846472,10.5613296 5.95527506,10.9726462 5.76368397,11.4282081 C5.54339587,11.9659338 5.43636634,12.5433108 5.44928234,13.1242659 C5.44928234,14.4232223 5.82071828,15.3963702 6.56359015,16.0437096 C7.31553896,16.6962141 8.28461833,17.0434039 9.27984913,17.0168575 C9.83154826,17.029394 10.3819079,16.957263 10.9117433,16.8029789 C11.3301562,16.6732606 11.7395538,16.5160748 12.137268,16.3324458 C12.5138694,16.583291 12.8343147,16.9095626 13.0783341,17.2906222 C13.2957419,17.6671275 13.4045688,18.0965124 13.3927358,18.5311184 C13.3927358,19.3866331 12.9842275,20.0510828 12.167211,20.5244675 C11.3501946,20.9978523 10.2194894,21.2331188 8.77509549,21.2302671 C7.55685549,21.2466736 6.3451404,21.049788 5.19476673,20.6485172 C4.17908251,20.2930836 3.24467141,19.7382543 2.44642596,19.016623 C1.67992728,18.3117409 1.07506373,17.4493179 0.673371867,16.4885772 C0.244269534,15.4538992 0.0303231235,14.3426878 0.0445686072,13.2226501 C0.0167244591,11.9770332 0.246830447,10.7391212 0.720425172,9.58671289 C1.12992151,8.6027473 1.75822898,7.72501859 2.55764286,7.02016897 C3.34395852,6.34766272 4.25647331,5.83869033 5.24182004,5.52301835 C6.27757131,5.18548367 7.36064729,5.01580177 8.44999993,5.02031236 C9.95713155,5.02031236 11.1192056,5.29274233 11.9362221,5.83741998 C12.7532386,6.38209764 13.1617468,7.08361964 13.1617468,7.94198599 C13.1638841,8.33138071 13.066718,8.71489244 12.879427,9.05629381 C12.7036999,9.38424929 12.4818609,9.68531653 12.2206807,9.95030661 C11.8043099,9.75924376 11.37559,9.59633017 10.9374087,9.46266326 C10.4124204,9.3046311 9.86658331,9.22675738 9.31834729,9.23167431 Z" id="Path"></path>
                <path d="M31.1403869,20.7233747 C30.8157394,20.8087849 30.4855807,20.8716723 30.1522675,20.9115879 C29.6894625,20.9752274 29.2227989,21.0066718 28.7556399,21.0056945 C28.3402289,21.0093117 27.9252549,20.9778309 27.5151437,20.9115879 C27.1798465,20.8616807 26.8614773,20.7318389 26.5869103,20.5330227 C26.3269424,20.3336898 26.1258917,20.0675933 26.0051603,19.7630595 C25.8514143,19.3569131 25.7787521,18.9245733 25.7912817,18.4904815 L25.7912817,11.5244535 C25.7912817,10.6689389 25.577403,10.0672269 25.1496457,9.71931766 C24.7010217,9.36710834 24.1435287,9.18253805 23.57336,9.19745373 C23.1703014,9.19506072 22.7687955,9.24758748 22.379917,9.35358515 C22.0596331,9.4344279 21.7527417,9.56121869 21.4687939,9.73001159 L21.4687939,20.7233747 C21.1441494,20.8087982 20.8139898,20.8716857 20.4806745,20.9115879 C20.0178681,20.9752137 19.5512054,21.006658 19.0840469,21.0056945 C18.6686353,21.0093321 18.2536595,20.9778511 17.8435507,20.9115879 C17.5082535,20.8616807 17.1898843,20.7318389 16.9153173,20.5330227 C16.6552727,20.3337659 16.4542046,20.0676463 16.3335673,19.7630595 C16.1798213,19.3569131 16.1071591,18.9245733 16.1196887,18.4904815 L16.1196887,0.282991191 C16.3578069,0.237363744 16.7021516,0.179616506 17.1527226,0.109749477 C17.6038998,0.0367709279 18.0602273,0.000410790997 18.5172684,0.000671360547 C18.9326749,-0.00281372804 19.3476379,0.028666223 19.7577647,0.0947779708 C20.0921047,0.144457916 20.4096708,0.273537899 20.6838593,0.471204412 C20.9436745,0.670688882 21.1446903,0.936739263 21.2656092,1.24116759 C21.4190879,1.64738624 21.4917412,2.07967284 21.4794879,2.51374561 L21.4794879,5.58932074 C21.8856562,5.44497101 22.2998494,5.32428366 22.7199841,5.2278658 C23.3215928,5.0831307 23.9384335,5.01132155 24.5572018,5.01398714 C26.6289731,5.01398714 28.2458957,5.53228643 29.4079698,6.568885 C30.5700438,7.60548357 31.1510809,9.14897456 31.1510809,11.199358 L31.1510809,20.7233747 L31.1403869,20.7233747 Z" id="Path"></path>
                <path d="M40.7178733,5.02468108 C41.7588817,5.01434326 42.7973188,5.12996454 43.8105587,5.36902572 C44.6645918,5.56442272 45.4738104,5.92004345 46.1953058,6.41703115 C46.8448462,6.87677808 47.3684779,7.49233955 47.7181218,8.20719553 C48.0922334,9.00991554 48.2752522,9.88840584 48.2528185,10.7737394 L48.2528185,17.803931 C48.2729286,18.290075 48.1104216,18.7661519 47.797257,19.1385338 C47.4843899,19.4910085 47.1185541,19.7926247 46.7128921,20.0325466 C45.3526239,20.8481372 43.436984,21.2566455 40.9659726,21.2580713 C39.9591204,21.2683923 38.9544208,21.1628988 37.9716713,20.9436697 C37.1544281,20.7680505 36.3746261,20.4494684 35.6681982,20.0026036 C35.0474139,19.603566 34.539314,19.0520198 34.1924354,18.4006525 C33.8352691,17.7016082 33.6574109,16.9247649 33.6748491,16.139955 C33.6748491,14.6955611 34.1026064,13.5862438 34.958121,12.8120031 C35.8136357,12.0377623 37.1425351,11.5565353 38.9448192,11.3683221 L43.0577059,10.9277321 L43.0577059,10.7138534 C43.089734,10.1587455 42.7769555,9.64113115 42.2706324,9.41133239 C41.7373616,9.15040042 40.9681113,9.01993444 39.9628816,9.01993444 C39.1818257,9.01827396 38.4029386,9.10218722 37.6401594,9.27017247 C36.9431801,9.42059987 36.2605057,9.63098378 35.599757,9.89897573 C35.299876,9.67781748 35.0619678,9.38319434 34.9089289,9.04346109 C34.7232754,8.66768035 34.6266716,8.25418673 34.6266091,7.83504666 C34.600563,7.3618195 34.7421803,6.89455819 35.0265622,6.51541533 C35.3554386,6.14363035 35.7703139,5.85799054 36.2349766,5.68342735 C36.9300764,5.43237972 37.6522119,5.26369002 38.3865959,5.1808125 C39.1596762,5.0802453 39.9382868,5.02809982 40.7178733,5.02468108 Z M40.9681113,17.3654797 C41.3633105,17.362462 41.7575437,17.3259722 42.1465828,17.2564016 C42.4809511,17.2143243 42.8052967,17.1136902 43.1047592,16.9591103 L43.1047592,14.4438972 L40.8440617,14.6321105 C40.3413095,14.6519374 39.8488059,14.7803532 39.4003808,15.0085369 C39.0443503,15.1848364 38.8237557,15.5524941 38.8357411,15.949603 C38.826239,16.3479886 39.0074003,16.726997 39.3233845,16.9698042 C39.6456283,17.2335879 40.1938706,17.3654797 40.9681113,17.3654797 L40.9681113,17.3654797 Z" id="Shape" fill-rule="nonzero"></path>
                <path d="M56.8550182,15.5111518 C56.8550182,16.0558294 57.027547,16.4429498 57.3726045,16.6725129 C57.8152176,16.9282668 58.3230698,17.0487236 58.8333958,17.0189963 C59.1593381,17.0178539 59.4846993,16.991396 59.8065437,16.9398612 C60.1049886,16.8931036 60.3990192,16.8215633 60.685585,16.7259825 C60.8779482,16.9624938 61.0416351,17.2209468 61.1732283,17.4959457 C61.3203267,17.8156043 61.3934335,18.1643238 61.387107,18.5161469 C61.4072134,19.2684811 61.0769283,19.987523 60.4930942,20.4624427 C59.8970857,20.9643447 58.8455156,21.2152956 57.338384,21.2152956 C55.4961758,21.2152956 54.0781603,20.7968064 53.0843374,19.9598279 C52.0905146,19.1228494 51.5914644,17.7625811 51.5871868,15.8790231 L51.5871868,2.44958201 C51.8110465,2.38541842 52.136855,2.31769017 52.5646123,2.24639729 C53.0162884,2.17160929 53.4734763,2.13512012 53.9312969,2.13722542 C54.852401,2.13722542 55.5696074,2.29986695 56.0829162,2.62496251 C56.596225,2.95005808 56.8528794,3.63589565 56.8528794,4.68247522 L56.8528794,6.69293462 L60.965766,6.69293462 C61.1106229,6.96718402 61.231556,7.25341627 61.327221,7.54844926 C61.4462409,7.91877644 61.5047396,8.30587914 61.5004627,8.69483888 C61.5004627,9.42772975 61.3379149,9.95601004 61.0128193,10.2796797 C60.6639939,10.6141361 60.1930037,10.7904674 59.7102983,10.7673231 L56.8550182,10.7673231 L56.8550182,15.5111518 Z" id="Path"></path>
                <path d="M69.9807515,20.6292681 C69.6236078,20.7147154 69.2614355,20.7775776 68.8963867,20.8174813 C68.411946,20.8798106 67.9240293,20.911243 67.4355955,20.9115879 C67.008862,20.9167793 66.5826428,20.8802463 66.1630175,20.8025098 C65.8287907,20.7434248 65.5122199,20.6096316 65.2369229,20.4111119 C64.976445,20.2098829 64.7802368,19.9371239 64.6722832,19.6261772 C64.5327306,19.2007208 64.4690242,18.7540519 64.48407,18.3065458 L64.48407,3.51683653 C64.4605497,3.14172969 64.5910958,2.77326533 64.8455249,2.49663532 C65.1256912,2.23604127 65.4602824,2.04098481 65.8250892,1.9255793 C66.6146202,1.65658362 67.4305222,1.47232455 68.2590283,1.37591114 C69.1706061,1.26062546 70.0885302,1.20266943 71.0073691,1.20266943 C73.8961569,1.20266943 76.1062363,1.82006583 77.6376075,3.05485862 C79.1689788,4.28965142 79.9368031,5.96146961 79.9410807,8.07031319 C79.9547316,9.0195322 79.7892943,9.96281506 79.4534374,10.8507358 C79.1396956,11.6634326 78.646148,12.3946141 78.0097564,12.9895224 C77.3135878,13.6194939 76.4890049,14.0908925 75.5929276,14.3711785 C74.5013664,14.7137108 73.3617983,14.8783633 72.2179223,14.8588218 L69.9807515,14.8588218 L69.9807515,20.6335457 L69.9807515,20.6292681 Z M71.6126457,10.5491669 C72.4923999,10.5491669 73.1675436,10.3452692 73.6380766,9.93747389 C74.1086097,9.52967858 74.3438762,8.90657875 74.3438762,8.0681744 C74.3438762,7.27254579 74.0979157,6.66013989 73.6059948,6.23095672 C73.1140739,5.80177354 72.3968675,5.58789488 71.4543755,5.58931366 C71.1192989,5.58931366 70.8419696,5.59431124 70.6223875,5.60429224 C70.3956126,5.61584757 70.1698413,5.64228281 69.9465309,5.68342735 L69.9465309,10.5513056 L71.6105069,10.5513056 L71.6126457,10.5491669 Z" id="Shape" fill-rule="nonzero"></path>
                <path d="M87.0311583,20.7233747 C86.7065107,20.8087849 86.3763521,20.8716723 86.0430389,20.9115879 C85.5802345,20.9752342 85.1135704,21.0066787 84.6464112,21.0056945 C84.2310003,21.0093117 83.8160262,20.9778309 83.405915,20.9115879 C83.0706178,20.8616807 82.7522486,20.7318389 82.4776816,20.5330227 C82.2176371,20.3337659 82.0165689,20.0676463 81.8959317,19.7630595 C81.7421856,19.3569131 81.6695235,18.9245733 81.682053,18.4904815 L81.682053,9.07982046 C81.6704052,8.65086584 81.7621,8.22540189 81.9494013,7.83932424 C82.138765,7.47854544 82.4018137,7.16157541 82.7215033,6.90895207 C83.1010654,6.60996319 83.5181006,6.36189913 83.9619995,6.17107069 C84.4769004,5.9424849 85.0063322,5.74814555 85.5468404,5.58932074 C86.1234129,5.41899297 86.7107579,5.28751914 87.304923,5.195784 C87.9070944,5.10201031 88.5156012,5.05481708 89.1250304,5.05462409 C90.1231308,5.05462409 90.9187594,5.24854074 91.5119162,5.63637404 C92.105073,6.02420735 92.3980868,6.65728818 92.3909575,7.53561654 C92.3900351,7.82535615 92.3475392,8.11346411 92.2647691,8.39113118 C92.1873982,8.65814912 92.0820119,8.91623814 91.9503675,9.16109435 C91.5112033,9.16109435 91.0613452,9.18176929 90.6007931,9.22311917 C90.1402411,9.26446904 89.690383,9.32720678 89.2512188,9.41133239 C88.8120546,9.49545799 88.3985558,9.5845741 88.0107225,9.67868071 C87.6715852,9.75665911 87.3407,9.86695418 87.0226031,10.0080538 L87.0226031,20.7233747 L87.0311583,20.7233747 Z" id="Path"></path>
                <path d="M109.794264,13.1264047 C109.814149,14.3099243 109.611738,15.4866632 109.197543,16.5955166 C108.833597,17.5641668 108.260307,18.4405326 107.518595,19.1620605 C106.77749,19.8646194 105.894249,20.3999612 104.928525,20.7319298 C103.847203,21.1004781 102.710799,21.2813188 101.568491,21.2666265 C100.423612,21.2823318 99.2853164,21.0910459 98.208457,20.7019868 C97.2419487,20.3492046 96.3597622,19.7984755 95.6183865,19.0850642 C94.881045,18.3599443 94.308427,17.4846047 93.939439,16.5185202 C93.5274418,15.4358261 93.3249426,14.2847018 93.3427175,13.1264047 C93.3268299,11.9786932 93.5293338,10.8384288 93.939439,9.76637096 C94.3086065,8.80037817 94.8812009,7.92507466 95.6183865,7.19982705 C96.3598787,6.48656519 97.2420318,5.93585691 98.208457,5.58290438 C99.2853164,5.1938453 100.423612,5.00255938 101.568491,5.01826472 C102.714825,5.00292582 103.854074,5.20017332 104.928525,5.60001467 C105.893832,5.9622682 106.775139,6.51754293 107.518595,7.23190884 C108.255573,7.95732639 108.828136,8.83258194 109.197543,9.79845276 C109.605304,10.86 109.807797,11.989317 109.794264,13.1264047 L109.794264,13.1264047 Z M98.8051785,13.1264047 C98.8051785,14.4096767 99.051139,15.388528 99.5430599,16.0629587 C100.010288,16.7313634 100.785712,17.1158513 101.600573,17.0831599 C102.412142,17.1173707 103.181737,16.7216026 103.626003,16.0415708 C104.096537,15.3514557 104.331803,14.3783078 104.331803,13.1221271 C104.331803,11.8659465 104.090833,10.8977891 103.608893,10.2176549 C103.12696,9.57582446 102.371115,9.19816599 101.568491,9.19816599 C100.765866,9.19816599 100.010022,9.57582446 99.5280884,10.2176549 C99.0461485,10.9006408 98.8051785,11.870224 98.8051785,13.1264047 Z" id="Shape" fill-rule="nonzero"></path>
            </g>
            <path d="M131.105366,19 C130.946698,19 130.818366,18.9556671 130.720366,18.867 C130.622365,18.7783329 130.564033,18.6686673 130.545366,18.538 L129.047366,9.578 C129.038032,9.55933324 129.033366,9.53133352 129.033366,9.494 C129.033366,9.41933296 129.063699,9.35166697 129.124366,9.291 C129.185033,9.23033303 129.252699,9.2 129.327366,9.2 L131.161366,9.2 C131.432034,9.2 131.581366,9.30733226 131.609366,9.522 L132.463366,14.814 L133.429366,11.748 C133.504033,11.4959987 133.658031,11.37 133.891366,11.37 L134.941366,11.37 C135.1747,11.37 135.328699,11.4959987 135.403366,11.748 L136.369366,14.8 L137.237366,9.522 C137.256033,9.40999944 137.298032,9.32833359 137.363366,9.277 C137.4287,9.22566641 137.531365,9.2 137.671366,9.2 L139.505366,9.2 C139.589366,9.2 139.659366,9.23033303 139.715366,9.291 C139.771366,9.35166697 139.799366,9.41933296 139.799366,9.494 L139.799366,9.578 L138.301366,18.538 C138.282699,18.6686673 138.222033,18.7783329 138.119366,18.867 C138.016699,18.9556671 137.8907,19 137.741366,19 L136.327366,19 C136.178032,19 136.061366,18.962667 135.977366,18.888 C135.893365,18.813333 135.837366,18.7293338 135.809366,18.636 L134.423366,14.758 L133.037366,18.636 C133.000032,18.7293338 132.939366,18.813333 132.855366,18.888 C132.771365,18.962667 132.6547,19 132.505366,19 L131.105366,19 Z M141.409366,19 C141.306699,19 141.220366,18.9673337 141.150366,18.902 C141.080366,18.8366663 141.045366,18.7526672 141.045366,18.65 L141.045366,9.41 C141.045366,9.30733282 141.080366,9.22333366 141.150366,9.158 C141.220366,9.09266634 141.306699,9.06 141.409366,9.06 L143.299366,9.06 C143.402033,9.06 143.488366,9.09266634 143.558366,9.158 C143.628366,9.22333366 143.663366,9.30733282 143.663366,9.41 L143.663366,12.532 C144.204702,11.8973302 144.937361,11.58 145.861366,11.58 C146.393369,11.58 146.87403,11.7013321 147.303366,11.944 C147.732701,12.1866679 148.068698,12.5459976 148.311366,13.022 C148.554034,13.4980024 148.675366,14.0719966 148.675366,14.744 L148.675366,18.65 C148.675366,18.7526672 148.640366,18.8366663 148.570366,18.902 C148.500366,18.9673337 148.414033,19 148.311366,19 L146.407366,19 C146.314032,19 146.232366,18.9650004 146.162366,18.895 C146.092366,18.8249996 146.057366,18.7433338 146.057366,18.65 L146.057366,14.828 C146.057366,14.4173313 145.9547,14.0976678 145.749366,13.869 C145.544031,13.6403322 145.250034,13.526 144.867366,13.526 C144.494031,13.526 144.200034,13.6403322 143.985366,13.869 C143.770698,14.0976678 143.663366,14.4173313 143.663366,14.828 L143.663366,18.65 C143.663366,18.7526672 143.628366,18.8366663 143.558366,18.902 C143.488366,18.9673337 143.402033,19 143.299366,19 L141.409366,19 Z M152.399366,19.14 C151.904697,19.14 151.454368,19.0443343 151.048366,18.853 C150.642364,18.6616657 150.325034,18.3980017 150.096366,18.062 C149.867698,17.7259983 149.753366,17.3573353 149.753366,16.956 C149.753366,16.3213302 150.01703,15.8056686 150.544366,15.409 C151.071702,15.0123314 151.797361,14.7393341 152.721366,14.59 L154.457366,14.324 L154.457366,14.156 C154.457366,13.8106649 154.387367,13.5586675 154.247366,13.4 C154.107365,13.2413325 153.869368,13.162 153.533366,13.162 C153.346698,13.162 153.190366,13.1946663 153.064366,13.26 C152.938365,13.3253337 152.796033,13.4233327 152.637366,13.554 C152.516032,13.6566672 152.4087,13.7313331 152.315366,13.778 C152.278032,13.8433337 152.231366,13.876 152.175366,13.876 L150.551366,13.876 C150.458032,13.876 150.381033,13.845667 150.320366,13.785 C150.259699,13.724333 150.234032,13.6520004 150.243366,13.568 C150.252699,13.3159987 150.378698,13.0336682 150.621366,12.721 C150.864034,12.4083318 151.232697,12.1400011 151.727366,11.916 C152.222035,11.6919989 152.833362,11.58 153.561366,11.58 C154.718705,11.58 155.577363,11.8343308 156.137366,12.343 C156.697369,12.8516692 156.977366,13.5399957 156.977366,14.408 L156.977366,18.65 C156.977366,18.7433338 156.9447,18.8249996 156.879366,18.895 C156.814032,18.9650004 156.730033,19 156.627366,19 L154.905366,19 C154.812032,19 154.730366,18.9650004 154.660366,18.895 C154.590366,18.8249996 154.555366,18.7433338 154.555366,18.65 L154.555366,18.16 C154.350031,18.4493348 154.065368,18.6849991 153.701366,18.867 C153.337364,19.0490009 152.903368,19.14 152.399366,19.14 Z M153.099366,17.488 C153.510035,17.488 153.843698,17.352668 154.100366,17.082 C154.357034,16.811332 154.485366,16.4193359 154.485366,15.906 L154.485366,15.738 L153.323366,15.934 C152.539362,16.0833341 152.147366,16.3633313 152.147366,16.774 C152.147366,16.9886677 152.238365,17.1613327 152.420366,17.292 C152.602367,17.4226673 152.828698,17.488 153.099366,17.488 Z M162.269366,19 C160.290689,19 159.301366,18.0713426 159.301366,16.214 L159.301366,13.624 L158.195366,13.624 C158.102032,13.624 158.020366,13.5890003 157.950366,13.519 C157.880366,13.4489996 157.845366,13.3673338 157.845366,13.274 L157.845366,12.07 C157.845366,11.9673328 157.880366,11.8833337 157.950366,11.818 C158.020366,11.7526663 158.102032,11.72 158.195366,11.72 L159.301366,11.72 L159.301366,9.41 C159.301366,9.30733282 159.336366,9.22333366 159.406366,9.158 C159.476366,9.09266634 159.558032,9.06 159.651366,9.06 L161.373366,9.06 C161.476033,9.06 161.560032,9.09266634 161.625366,9.158 C161.6907,9.22333366 161.723366,9.30733282 161.723366,9.41 L161.723366,11.72 L163.473366,11.72 C163.576033,11.72 163.662366,11.7526663 163.732366,11.818 C163.802366,11.8833337 163.837366,11.9673328 163.837366,12.07 L163.837366,13.274 C163.837366,13.3766672 163.802366,13.4606663 163.732366,13.526 C163.662366,13.5913337 163.576033,13.624 163.473366,13.624 L161.723366,13.624 L161.723366,16.004 C161.723366,16.3306683 161.784032,16.5779992 161.905366,16.746 C162.0267,16.9140008 162.222698,16.998 162.493366,16.998 L163.599366,16.998 C163.702033,16.998 163.786032,17.0329997 163.851366,17.103 C163.9167,17.1730004 163.949366,17.2593328 163.949366,17.362 L163.949366,18.65 C163.949366,18.7433338 163.9167,18.8249996 163.851366,18.895 C163.786032,18.9650004 163.702033,19 163.599366,19 L162.269366,19 Z M168.135366,19.14 C167.370029,19.14 166.730702,19.0326677 166.217366,18.818 C165.70403,18.6033323 165.3237,18.3466682 165.076366,18.048 C164.829031,17.7493318 164.705366,17.4786679 164.705366,17.236 C164.705366,17.1426662 164.740366,17.065667 164.810366,17.005 C164.880366,16.944333 164.957365,16.914 165.041366,16.914 L166.735366,16.914 C166.791366,16.914 166.838032,16.9326665 166.875366,16.97 C167.034033,17.0726672 167.122699,17.1333332 167.141366,17.152 C167.3187,17.2826673 167.484365,17.3829997 167.638366,17.453 C167.792367,17.5230004 167.976698,17.558 168.191366,17.558 C168.443367,17.558 168.651032,17.5090005 168.814366,17.411 C168.9777,17.3129995 169.059366,17.1753342 169.059366,16.998 C169.059366,16.8486659 169.015033,16.7273338 168.926366,16.634 C168.837699,16.5406662 168.6697,16.4496671 168.422366,16.361 C168.175031,16.2723329 167.799368,16.1813338 167.295366,16.088 C165.680691,15.7613317 164.873366,15.0146725 164.873366,13.848 C164.873366,13.4653314 164.997031,13.0990017 165.244366,12.749 C165.4917,12.3989982 165.855697,12.1166677 166.336366,11.902 C166.817035,11.6873323 167.393362,11.58 168.065366,11.58 C168.746703,11.58 169.33703,11.684999 169.836366,11.895 C170.335702,12.1050011 170.716031,12.3569985 170.977366,12.651 C171.2387,12.9450015 171.369366,13.2133321 171.369366,13.456 C171.369366,13.5400004 171.339033,13.6146663 171.278366,13.68 C171.217699,13.7453337 171.145366,13.778 171.061366,13.778 L169.521366,13.778 C169.437365,13.778 169.372033,13.7593335 169.325366,13.722 C169.213365,13.6659997 169.101366,13.5960004 168.989366,13.512 C168.821365,13.3999994 168.674366,13.313667 168.548366,13.253 C168.422365,13.192333 168.261367,13.162 168.065366,13.162 C167.832031,13.162 167.650033,13.2133328 167.519366,13.316 C167.388699,13.4186672 167.323366,13.5493325 167.323366,13.708 C167.323366,13.8480007 167.363032,13.9623329 167.442366,14.051 C167.5217,14.1396671 167.685031,14.2259996 167.932366,14.31 C168.1797,14.3940004 168.555363,14.4826662 169.059366,14.576 C169.974037,14.7346675 170.63903,15.016998 171.054366,15.423 C171.469701,15.829002 171.677366,16.302664 171.677366,16.844 C171.677366,17.5440035 171.367036,18.1016646 170.746366,18.517 C170.125696,18.9323354 169.255371,19.14 168.135366,19.14 Z M172.489366,19 C172.414699,19 172.347033,18.969667 172.286366,18.909 C172.225699,18.848333 172.195366,18.780667 172.195366,18.706 C172.195366,18.6499997 172.200032,18.6080001 172.209366,18.58 L175.471366,9.606 C175.5647,9.33533198 175.751364,9.2 176.031366,9.2 L178.215366,9.2 C178.495367,9.2 178.682032,9.33533198 178.775366,9.606 L182.037366,18.58 C182.046699,18.6080001 182.051366,18.6499997 182.051366,18.706 C182.051366,18.780667 182.021033,18.848333 181.960366,18.909 C181.899699,18.969667 181.832033,19 181.757366,19 L179.937366,19 C179.713365,19 179.5547,18.8973344 179.461366,18.692 L178.957366,17.334 L175.289366,17.334 L174.785366,18.692 C174.692032,18.8973344 174.533367,19 174.309366,19 L172.489366,19 Z M175.877366,15.234 L178.369366,15.234 L177.123366,11.664 L175.877366,15.234 Z M183.325366,21.66 C183.222699,21.66 183.136366,21.6273337 183.066366,21.562 C182.996366,21.4966663 182.961366,21.4126672 182.961366,21.31 L182.961366,12.07 C182.961366,11.9673328 182.996366,11.8833337 183.066366,11.818 C183.136366,11.7526663 183.222699,11.72 183.325366,11.72 L184.991366,11.72 C185.094033,11.72 185.178032,11.7526663 185.243366,11.818 C185.3087,11.8833337 185.341366,11.9673328 185.341366,12.07 L185.341366,12.574 C185.845368,11.91133 186.568694,11.58 187.511366,11.58 C188.416704,11.58 189.128363,11.8623305 189.646366,12.427 C190.164368,12.9916695 190.442032,13.7966614 190.479366,14.842 C190.488699,14.9633339 190.493366,15.1359989 190.493366,15.36 C190.493366,15.5840011 190.488699,15.7613327 190.479366,15.892 C190.442032,16.900005 190.162035,17.6933304 189.639366,18.272 C189.116697,18.8506696 188.40737,19.14 187.511366,19.14 C186.606028,19.14 185.929368,18.8320031 185.481366,18.216 L185.481366,21.31 C185.481366,21.4126672 185.4487,21.4966663 185.383366,21.562 C185.318032,21.6273337 185.234033,21.66 185.131366,21.66 L183.325366,21.66 Z M186.699366,17.194 C187.119368,17.194 187.420365,17.0703346 187.602366,16.823 C187.784367,16.5756654 187.889366,16.2326689 187.917366,15.794 C187.926699,15.7006662 187.931366,15.556001 187.931366,15.36 C187.931366,15.163999 187.926699,15.0193338 187.917366,14.926 C187.889366,14.4873311 187.784367,14.1443346 187.602366,13.897 C187.420365,13.6496654 187.119368,13.526 186.699366,13.526 C186.298031,13.526 185.999367,13.654332 185.803366,13.911 C185.607365,14.167668 185.500033,14.491998 185.481366,14.884 C185.472032,15.0053339 185.467366,15.1826655 185.467366,15.416 C185.467366,15.6400011 185.472032,15.8126661 185.481366,15.934 C185.500033,16.2980018 185.609698,16.5989988 185.810366,16.837 C186.011034,17.0750012 186.307364,17.194 186.699366,17.194 Z M192.201366,21.66 C192.098699,21.66 192.012366,21.6273337 191.942366,21.562 C191.872366,21.4966663 191.837366,21.4126672 191.837366,21.31 L191.837366,12.07 C191.837366,11.9673328 191.872366,11.8833337 191.942366,11.818 C192.012366,11.7526663 192.098699,11.72 192.201366,11.72 L193.867366,11.72 C193.970033,11.72 194.054032,11.7526663 194.119366,11.818 C194.1847,11.8833337 194.217366,11.9673328 194.217366,12.07 L194.217366,12.574 C194.721368,11.91133 195.444694,11.58 196.387366,11.58 C197.292704,11.58 198.004363,11.8623305 198.522366,12.427 C199.040368,12.9916695 199.318032,13.7966614 199.355366,14.842 C199.364699,14.9633339 199.369366,15.1359989 199.369366,15.36 C199.369366,15.5840011 199.364699,15.7613327 199.355366,15.892 C199.318032,16.900005 199.038035,17.6933304 198.515366,18.272 C197.992697,18.8506696 197.28337,19.14 196.387366,19.14 C195.482028,19.14 194.805368,18.8320031 194.357366,18.216 L194.357366,21.31 C194.357366,21.4126672 194.3247,21.4966663 194.259366,21.562 C194.194032,21.6273337 194.110033,21.66 194.007366,21.66 L192.201366,21.66 Z M195.575366,17.194 C195.995368,17.194 196.296365,17.0703346 196.478366,16.823 C196.660367,16.5756654 196.765366,16.2326689 196.793366,15.794 C196.802699,15.7006662 196.807366,15.556001 196.807366,15.36 C196.807366,15.163999 196.802699,15.0193338 196.793366,14.926 C196.765366,14.4873311 196.660367,14.1443346 196.478366,13.897 C196.296365,13.6496654 195.995368,13.526 195.575366,13.526 C195.174031,13.526 194.875367,13.654332 194.679366,13.911 C194.483365,14.167668 194.376033,14.491998 194.357366,14.884 C194.348032,15.0053339 194.343366,15.1826655 194.343366,15.416 C194.343366,15.6400011 194.348032,15.8126661 194.357366,15.934 C194.376033,16.2980018 194.485698,16.5989988 194.686366,16.837 C194.887034,17.0750012 195.183364,17.194 195.575366,17.194 Z M202.911366,19 C202.836699,19 202.769033,18.969667 202.708366,18.909 C202.647699,18.848333 202.617366,18.780667 202.617366,18.706 C202.617366,18.6499997 202.622032,18.6080001 202.631366,18.58 L205.893366,9.606 C205.9867,9.33533198 206.173364,9.2 206.453366,9.2 L208.637366,9.2 C208.917367,9.2 209.104032,9.33533198 209.197366,9.606 L212.459366,18.58 C212.468699,18.6080001 212.473366,18.6499997 212.473366,18.706 C212.473366,18.780667 212.443033,18.848333 212.382366,18.909 C212.321699,18.969667 212.254033,19 212.179366,19 L210.359366,19 C210.135365,19 209.9767,18.8973344 209.883366,18.692 L209.379366,17.334 L205.711366,17.334 L205.207366,18.692 C205.114032,18.8973344 204.955367,19 204.731366,19 L202.911366,19 Z M206.299366,15.234 L208.791366,15.234 L207.545366,11.664 L206.299366,15.234 Z M213.887366,19 C213.794032,19 213.712366,18.9650004 213.642366,18.895 C213.572366,18.8249996 213.537366,18.7433338 213.537366,18.65 L213.537366,9.564 C213.537366,9.46133282 213.570032,9.37500035 213.635366,9.305 C213.7007,9.23499965 213.784699,9.2 213.887366,9.2 L217.849366,9.2 C219.062705,9.2 220.014696,9.47533058 220.705366,10.026 C221.396036,10.5766694 221.741366,11.3839947 221.741366,12.448 C221.741366,13.5120053 221.396036,14.307664 220.705366,14.835 C220.014696,15.362336 219.062705,15.626 217.849366,15.626 L216.253366,15.626 L216.253366,18.65 C216.253366,18.7433338 216.2207,18.8249996 216.155366,18.895 C216.090032,18.9650004 216.006033,19 215.903366,19 L213.887366,19 Z M217.779366,13.624 C218.162034,13.624 218.463031,13.5236677 218.682366,13.323 C218.9017,13.1223323 219.011366,12.826002 219.011366,12.434 C219.011366,12.0699982 218.911034,11.7760011 218.710366,11.552 C218.509698,11.3279989 218.199368,11.216 217.779366,11.216 L216.211366,11.216 L216.211366,13.624 L217.779366,13.624 Z M223.393366,19 C223.300032,19 223.218366,18.9650004 223.148366,18.895 C223.078366,18.8249996 223.043366,18.7433338 223.043366,18.65 L223.043366,9.55 C223.043366,9.44733282 223.078366,9.36333366 223.148366,9.298 C223.218366,9.23266634 223.300032,9.2 223.393366,9.2 L225.395366,9.2 C225.498033,9.2 225.582032,9.23266634 225.647366,9.298 C225.7127,9.36333366 225.745366,9.44733282 225.745366,9.55 L225.745366,18.65 C225.745366,18.7433338 225.7127,18.8249996 225.647366,18.895 C225.582032,18.9650004 225.498033,19 225.395366,19 L223.393366,19 Z" id="WhatsAppAPI" fill="#000000" fill-rule="nonzero"></path>
        </g>
    </g>
</svg>